/* XPM */
static char * ktamaga_xpm[] = {
"32 32 5 1",
" 	c #000000000000",
".	c #C71BBEFBC71B",
"X	c #71C6DF7DFFFF",
"o	c #E79DF3CEFFFF",
"O	c #FFFFFFFFFFFF",
"                                ",
"                                ",
"  ...........................   ",
"  .XXXXXXXXXXXXXXXXXXXXXXXXXX   ",
"  .XXXXXXXXXXXXXXXXXXXXXXXXXX   ",
"  .XXXX....X....X....X....XXX   ",
"  .XXXX.oo X.oo X.oo X.oo XXX   ",
"  .XXXX.oo X.oo X.oo X.oo XXX   ",
"  .XXXX.   X.   X.   X.   XXX   ",
"  .XXXXXXXXXXXXXXXXXXXXXXXXXX   ",
"  .XXXXXOOOOOOOOOOOOOOOOXXXXX   ",
"  .XXXXXO..............OXXXXX   ",
"  .XXXXXO....     .....OXXXXX   ",
"  .XXXXXO... ..... ....OXXXXX   ",
"  .XXXXXO... . . . ....OXXXXX   ",
"  .XXXXXO... ..... ....OXXXXX   ",
"  .XXXXXO... .   . ....OXXXXX   ",
"  .XXXXXO... ..... ..  OXXXXX   ",
"  .XXXXXO....     ...  OXXXXX   ",
"  .XXXXXOOOOOOOOOOOOOOOOXXXXX   ",
"  .XXXXXXXXXXXXXXXXXXXXXXXXXX   ",
"  .XXXX....X....X....X....XXX   ",
"  .XXXX.oo X.oo X.oo X.oo XXX   ",
"  .XXXX.oo X.oo X.oo X.oo XXX   ",
"  .XXXX.   X.   X.   X.   XXX   ",
"  .XXXXXXXXXXXXXXXXXXXXXXXXXX   ",
"  .XXXXXXXXXXXXXXXXXXXXXXXXXX   ",
"  .XXXXXXXXXXXXXXXXXXXXXXXXXX   ",
"  .                             ",
"                                ",
"                                ",
"                                "};
