/* XPM */
static char * bg1_xpm,[] = {
"135 121 44 1",
" 	c #D75CF7DEF7DE",
".	c #D75CF3CEF7DE",
"X	c #D75CFBEEFFFF",
"o	c #CF3CF3CEF7DE",
"O	c #D75CFFFFFFFF",
"+	c #D75CF7DEFFFF",
"@	c #CF3CF7DEF7DE",
"#	c #CF3CF7DEFFFF",
"$	c #C71BEFBEEFBE",
"%	c #C71BEBADEFBE",
"&	c #C71BEFBEF7DE",
"*	c #CF3CEFBEF7DE",
"=	c #CF3CF3CEFFFF",
"-	c #C71BEBADF7DE",
";	c #DF7DFBEEF7DE",
":	c #C71BE79DEFBE",
">	c #DF7DFFFFFFFF",
",	c #DF7DFBEEFFFF",
"<	c #BEFBE79DEFBE",
"1	c #BEFBE79DE79D",
"2	c #D75CFBEEF7DE",
"3	c #BEFBE38DEFBE",
"4	c #BEFBE38DE79D",
"5	c #CF3CFBEEFFFF",
"6	c #C71BF3CEEFBE",
"7	c #CF3CFBEEF7DE",
"8	c #CF3CEFBEEFBE",
"9	c #B6DADF7DE79D",
"0	c #BEFBDF7DE79D",
"q	c #C71BF3CEF7DE",
"w	c #CF3CEBADF7DE",
"e	c #BEFBEBADEFBE",
"r	c #C71BE79DE79D",
"t	c #CF3CEFBEFFFF",
"y	c #C71BE79DF7DE",
"u	c #D75CF3CEFFFF",
"i	c #C71BE38DEFBE",
"p	c #CF3CF3CEEFBE",
"a	c #C71BEBADE79D",
"s	c #B6DADF7DDF7D",
"d	c #BEFBDF7DDF7D",
"f	c #CF3CEBADEFBE",
"g	c #C71BE38DE79D",
"h	c #BEFBDF7DEFBE",
"  ... XXo XOXXXXo++@o#@oXOOXXOXo$%%o#@#O@###@o$%%$&o@#XXOOXXOOXXXX###XXXXOOXXOOXXXXXX o*+o*=+o&-&#XX++=&#=ooooo&ooooo*&&&%%o#o&&&&o##XX",
";;   +XXXXXX++XOXXX++X+o+XOXXOX#o$$o@o@XXOOOX@o$%$&oo@@#OOXXXOOOOXX#@@##OOOXXXX@XXXXX+#oX@=++=oo=XOXXX#*o*&&*oo=##=oooo=-:%*o&%%&&o#+XX",
">>,,,,XX>>X#oo#XXOOXXXX+#XXXX>OX#ooooo@XOOOOXX@o&&oooo@@#oooo#XXXX#@o@##OOO#@##@XOXXXXXXXXXXX#=+XXXXXX#**&%%&o#+XX#oo#+X=oo##o&&&*=+XXX",
">>>>>>>X>X+o**o@+XX##XX++XXXXXXX#@oo&o@X@#XXXXXX@@ooo@oo&$%%%o@#@@ooo#XXXOX@o##@XOXOOOOOXXXX+o=+#=oo##o-&&-&o###X+#=##XXXXOOOX=o*o#XXXX",
">>>>>,XX>XX#oooo*oo*o#+#XXXXX#+X@@o&&o#Xo@#XXXXXX@oooooo&%%<$o#X@ooo@@#X@##o@XXXXOXOO>>>OXXX=-&o#&-&oo&-**o###o*===#####XXOOX+#o=##XXXX",
">>,,,,XX>>XXXX@o&**$*o#@XXXX@**@&oo&$o#XXXXXXXXXX@o&oo&$$%1<%o@X####@@ooo@@@#XOXXXXOOOOOX#==*::-=&&o#=ooo=#XX#*%&&ooo===#XOOXX#=######+",
",,,XX,>>>>XXOXX#o@o**@+@X+++o%%o$o@&%&o@XXXXXXXXOXooo@o&%<11%&o@#XXXX@o$$o##XOOX 2XOOOXX@*---:::o*oXX##X#####=&%&&&&&oo=#O>OXOOX#=o&&*o",
">,X2X,>>>XXXXXXXXXXoo#+##o@#*%%o$@#&%$oo@##XXXOO>O#@#X#o$%%%&o#Xo#XXX#o&$o#XXOO@@ XOOXX+o%::%%::o*#XX##X##===o&%&&%%-&o#oX>OXOOX#o&%%%&",
",,>>>>>XXXX+#@#X###++++++o*o&:1:%%$&&&&&@#XXXXXXOXXXX@@#@o$%&oooo@XXOXo&@#XOOX#@o XXXXX@*%::::%*#XXOOXXX#=oo***o*&&&*o#X#+XOOXX##*%<<<<",
",,,>>>>XXXX+oo#XXXXXXXX+o*&*$<1:%%$oooooo@XXXXOOXX#X#@@##o&$ooooo#XOX#oo@#XOOX#@+OOXXX#o$:<:::%*#XOOOX##=ooooo==**&*o=#X#+XXXX###o&%<33",
" ,,>>>>X,XX@oo@#XXXXX+##o&$$%<4<<%&o#####XXXXXXOX@@##@@XX@o&&ooo&@XX#ooo@#XOOX#@XO>XXX@*$%:::::-=+O>OX#oooo=####ooooo#+X+++####=###*%<<",
"  X,>>>>>,X@ooo#++++@ooo*&$%%:<<<%&@XXX#OOOX####@oo@#@@XX@o&$$&&%&@@o&o@##XXXX#@@XOXXX+oo$%%:34<*#XOOX=ooo######oooo=#+X+##ooooo#XX#&%%",
"  2,>>>>>>X#ooo@X+#@oooo***$%%%%%%&o####XXOXX###@oo@#@#X#@o$%%$$%$oo&o@X@####@@o@XOXXX+o*%%%:33<&oXOXX#oo=####=ooo==##+X+#o&&&oo#XOX#oo",
".  ,>>>>>>XX@o@@XX+oooo@ooo****$$&ooo@ooo#XXXXXO#oo#X#XO##o&%%$&$&oooo#X@@@ooooo@XOXXXo$%<3::::-&o+XX#oo*o####o*oo=######o*&&&oo#+XX+#+",
".  ,>>>>X,OX+@@@OX@o*o@+@++oo#@o@@oooooo&oXOOOOOX@@XXXXOXXXo&&o@oo&$$&o@oooo&&&$oXXXXXo%:44<::-*o#XX#o*&%&o##=o&oo=#####oo&&&&oo####++X",
"o. X>>>>X,>OX+##X#o$%&o#+XX#@XX@XX#oo&&&&oXOOOXXX##XXXXOOOO#oo#Xo&%<%%%$oo&&$$$&$oXXXX#*%<43<<%*#+XX#*&-<%&=#=o&ooo==#=#o**&&&*o##o##5+",
" ooo+XO>+XXX++XXOOX6$@@@@5X7o@@OXX  @o*%8o+XX +X+oo+XXXXOXX+@@@#oo&-%%&o*&&&-%%%&ooo=XXXo:904<*X###=o&-%<43&#+##=oo*************#5X5555",
"@oo@XO>>XOOXX+XXOO5q6@7@@XX5@@7XXXX+@o8%o@XXXXXXX@o+X#@#XXXXX+#@oo*&%-&oo*-%:%%-*oooo+X+#%43<%oX####o&-%<43&####o**w***wwwww**oo#555555",
"ooo#XOOO>>OX++XXOOXoo@X@XXXX@@@XOXXX+o*%@+XOOXXOO+@+#o**@+XXXX+###=o**o##o-<<%&oo=o*o#+##&::%-*#ooooo&%%:33-oooo=*-%w*w%:::%w*oo#5555##",
"ooo#XXXXXXX+@@+XOX+@@@XXXOXX@@ XOXXXX o*@XXOOOOX>X#+@*$$oo+XXXXXXXX+##+XX#*-%&o#o#o&&=#==&%%-&&&-&&&&&%%-::&ooo=+*-%***%::::%w**##5##qq",
"oooo+X++#@o**o@XXX++++XX>OXX+++XXXXXXXX@ +XXOOXX>X#+#o&*oo@+XXXOXXXX###X##=oo##X=#o&&o#=o*&%-&&%:%&&*oo*o&&o=oo#+*-%%w-%::::%%w-o##oo&&",
"@ooo#+#@oo*%%&o+X++XXXX,>>XXXXXXXXXXOOXX  XXOOX+O+@+#o****o@+XXO####ooooo=##+XXX##o&&=##ooo&&o*--&o=#+++#oo##oo#**%::::%w-%%%%--oo#o&&&",
"X+@o@##@#o*%%$o+X++>>XX>>>,XX,,,XXXO>>OXX+XXOOX X#o@@o&*%$o#XXXXo@@o&&&&$&oo@XXX##=&&#X++X#o=+#ooo#+XXXXX####oo#**-:44<%&&-----&o##oq&&",
">X+@#+++X+o&%$o+,++>>XX>>,XX,>>>,OOO>>XXXXXX>>X X@ooo*%%:%o+XX+#o@@o&$$&%%$&o@XX##=&*#XXXOX#+OX#o##XXXX+X###=*o#*o*%44:*&&--&&**####o&&",
"XXXXXXXXX#o$%&oo   X,>,+,XX+X,>>>>>>OOXXX@@XX++O+o*%%$**%%%*o+++##@oo&$$$%%%&@#Xo*&&o##+XX+#+XXO#+XX+#+X=#=oo=o&o*&-:3:*oooooo***#+#*%%",
"OXX+++++#oo**o#X+  X,>,XXXXXX,>>OO>>OOXXX +OOXX>+#oo**$$%::%*o++X##@ooo&o&$&o#XXX#oo=###XX###+XX=#++####XOX##+#*o&--%:-oo==###==*#X#o-%",
"OXX#@@@#ooooo+X>+++X,,XX++XXXXXXXXXOXXXXX +XOXXO+++#oo**%::%*@XXXXX@@@oo@@@@XOOOOX###+++X+#==##X+XOOX+##XXX##X#o#&%-&&*==######=*=+X+oo",
"XX+oo@+X@@o@+XO>XXXXXXXX. +XXXXX+XXXXX++o@ XXXXX++++#@#+$%%*@XO>OOXXXX@@XXXXOOOOX+##+XXXX+#=o=#+XXOOXX##=##=#XX#Xo-&&&&oo=##=o&&<-=++++",
"X+@oo+XX++++XXOOXXXXXXXXo@+XXXX+@@@@@@@@oo +XXXXXXX#oo+X**o+X>>OOOOXXXXXOXXXOOOXX+#=#+XXX##==##+##XX#=oo#++#XOOX#&%&***o####o&%:4<-o=##",
"ooooo+XXXXXXXXXXXXXX@@@Xo@@XXXX@ @ooooooo@XXXOOX>OX#o*@Xoo#XOOXXOOOXXXXXOXXXXOOXOX#ooooo##=oo##X#+X+#==#+X+##X+o&%%*o=#++XXX#o-%%-*o===",
"***ooo@#XXXXX++#XXX7@@@7@@@7557@X+@ooooo*@XXX>OX+XX+oo#X+++XXXX+XXXXXXXXOX@@XXOOOX#oooooooooo=#XXXXX++XX#+#o=##*ee&###5O5XXXX#q&****ooo",
"******oo+XXXX+#@XXX@oo@@o@@@@7@@XX ooooo$o+ XOX@%o#+@#X>OXXXXXXXXXXXXXXXOX@@XXOOX#=oo===*&&&*o#+XX+###XX+XX#XXX#%%oXX##O##XXX#o&::::%-&",
"o*&&$%%&o+O>X+o*+X+@oooX+#+XXOXXXXXX+@*$88o XX@$&$$oXOOXOOXXX@#O@XO>OXXOXXXXX>>XXXX##=ooX#o&&ooooo*oo####++#+XX=&&&#XXX>O+#XOX=oo-:%*o&",
"o$%%%%%$o#XOX+o*+++o**o+X+@#+XXXXXXXXX@oooo@XXo8$%$@O>OOOXOOX#XOo+XOXXXX+X+@+OOXOOXXX+++#ooo**&&&&%%-o#X+XX#XOX+o*o#X#+XX=oXOX##X+====*",
"o$%$%%%&*@XOX+oo##@o$$o#+oo*o+XXOOXOOX o@ooo  @o$$&#OOX@X#XOX##Xo@+XX++X##o&oXXXOOXXXXXXoo=#o*-%&%<3<&#XXXX+XOOX#oo##==#o&*+OXXXXX+#o**",
"+o***%%**oXXX+@oooo$%%*oo*%%&oXOOXXXX+o8ooo@+X@o&oo#X#o$oo#XXoo@oo@######o*%$#XXXXX##=oo&o##=o&&&-%<%&#OXXXXXOO+=oo##ooo&&&#XXXXo=#=***",
"X#oo*%%%&o+XX+@o&&$%<:&o*%<<%oXOOOXXX@*%8o@XOX+@oo@##@o$oo#XXoooooooo@oo+@*%$#XXXX#=o&&&-&**&&&oooo**o#X#XXXXO+o&&&=#o*o&&*#X+#+=+X+#=+",
"X@o*$::%*o+XX+@o%%%:1:*#o%:<%oXO>>OOX o$*oXO>OX@o@@###XX##XOX@o@o***oooo+#o$*+X+XX#o*&&-%--%::-*o#+#oo#+=#+###o%:<%oo**o&&o#+#o#XXXX=o=",
"+o*o&%%&*o+X+#oo%%%::%oX+o%%$o+XOOOOOX@o XO>OXX ooooo@XOXXOOX@o#o*&*oooo##o*o++o##oo&&&&-&&-<<%&o=#=*&o#=#o&&&%<33:&o&&*&&o##oo#XX+#o*-",
"+oooo**ooo+X+@oo%%%%%&+OO+o&*o+XXXXXOX+@O>>>XX++@o&%%&@XOXOOXoo@o*$&oooo@#@oo+@***&&&&&&*o#o%<:%&*o&%%&##=&<<:<344<&&&%&&&o##oo#XX+=o*&",
"XXXXX#o*@ooo+XX+$%$o@+XXXX@*%%o+XXXXXX++XXOOOOXX@o$%%&o#@#XX#@o@o*&*oo*%%&#XOX#o#====####X#&:%-&&&&&%-&o**&-%:%%3<::<:%-oo=##=&%=====#+",
"++XXXX+#X+ooo#++oooo@#@oX+o$%%o+XXXXXXXXXXOOOOXXX#o$%$&oo@#@o$%%%$*o@o%4&o+XOX+o####++++#X#&%%&&&&&&--&*ooo&%<<<%-&-%<<<%%&=##o&***oo==",
"+XXXXXXXOXoooo##+#@@##@oX#o%%%*@XXXXOOOOXOOOOOOXOX@&$$&o@#X#o%<1%%$*o*%1oo+XXX+#+XXXXXXX+XXo-&*oooo*&&&*=##o&-%%&oo*-:<33<&o##o&--*o===",
"OXXX++++X+ooo@@@#@o#XXXXX#o&%$*ooo XXXOOOOOOOOOOXX@oooo@XXOO#o&$%%::%%*o*ooo@#++#XXOOOXXXOX=&o######oooo&o==oo*o&o=o&%<<:%*#X+=*%-*=+++",
"XXXX++++oooo+++@@o@+XOOO+#oo*ooo*o@XXOOOOOOOOOOOXX#@@@@@@XXOXX##$%:<<%*o%%%$*o@+#+XXXXX+XOO#o=+XXXXX####-&ooooooo###o-:<-&o#XX+#%-*=+++",
"++++++++&*o@XX+#X+++XXXX#@oo@o*&oo X>>>>OXXXXXXOOOXX#@oo&o@###XX***$%::%%%%%$*o###+XXX+#XOX#o=+XXOOOX+#+##++####XXX+o&%:-&*#XXXX%-*o==#",
"#+++++@o***o+XX+XX+XXXX+ooo#+o&%*o X>>>OXXXXXXXXOOOXX##@oo@@@#XX##o*%::%o*&&&*o@######++#X+o&o##XOOOXX++XXXXXXXOOOOX#o*&&&&o#+++-&*oo=#",
"XXXX o*&o**oo+XXX+++XXX+**o++o%1$o@XXOXOXXXX+XXXXXXXXXXXXXXX##XOXXo%4<$o+@oooooo######+Xo##&%&o=XXOOX+++oo===#XOXOOX+#+Xo*&&*o**ooo==++",
"oXOX@@8roo**oo+X++XXX++#oooXX@%01<$oXOOXOXX@@#XXXXXXOOOOXXO>OX+@#+@&:%*o+XXXXXX+XX#oo@+X@oo***ooXXOXX++X#ooo+XXXOO>O,X+++*w**--&o===o=#",
"oX>OXX oo***o#XXXXXXX+##oo@XX+&1<<%q#XX#5#ooo@@@XX+++XXXXXXOOXXXXXXo%%*o#+XXOXXXXX+@o@+XXX+#@@@#XXOOX+++ooooXXOXX,,XXX+++*w**ww*:-&**o=",
"@XOOXXX288**o+XOXXXXX++#ooo#X+o%%%%&o@@@@ooo@#@oXX#oo@+XXXOOOXXXXOX+o&*oo#XXOOOOOXX+#++XXXXXXX++XO>>X+##ooo#XOOO,XXX+++++=*t*-yy-&**---",
"2XX2@@@@88&*o@+XXXXXXXXX***o@#ooooo&oooo#@o#XXX@X++@@#++>>OOXXXXOXXXo&$*o@+XXOOOOOX+++XXXXXXX++#XOOOXX#oooo+XOOO,XX+++XXX+=u=-i3****-::",
"2 @@o8po8$$$&*o@++XXXXXXooooo##@OX#oooo@#@@XXOX@++XXXX++XXXXXXXXX#@#o%%$oo#+XXOOOXXXXXXXOXXX++##XXXXXX#oo@#++XXO,XX+++XXo*=++*i3<:%-%--",
"@pppo$o@8$%%%&*o++XXXXXX++++++XXOOX@oo@#@@#XX##@@+XXOXX+#+XXOOOOo&$o*::%o@@#++XXXXXXXXXX>OXX++++XX+XXX+@+++#o@+XX+++++++%:wu+t---%%:<<:",
"oppp8%$o$$%%%*ooXXXXX++#XXXXX+XX++#ooo#Xo#X+ooo+oo#+XX++++XXXXX+*:<%$::$#@@ooo@@++++XXXO>>X+@#+XX+oo+++#XXXo**o+@@#+++##%:-*=*&*##*%400",
"@p8p$11%$%%%$*o#XXXX+#ooXXXX+#++*ooo*o+XoXXXo*oX*oooo#++XOOOX+o*$44%%<:*+#@oooooo@#+XXOO>O+ooo#+X#oo@+++>OXo$$o@ooo@#@ooo-:----*+#o%<3<",
"@$a8814r%%&**o+XXXX++@ooXO>OX+#@oo****oo+XOOXXXXo*$$o+O>>XX++o$:::<:%&ooXOXo&&$:o+X+@@X>>X++o**o+@oooooo+@*%%%*oooooo#+X+#=&----###&&&&",
"paa8$4s41%$ooo+XXXXXX++#XXXX+ooooooooo@#XXOXX+XXX+@o@+XX>X+##o*%%%%<4:&@+XXo**&%#XOXX+XOX+@#@oo@++#ooo@#+@*%%%*ooo*&*o=+=o*&&*==qooqqo#",
"$rr$$4sd4%*o@##++XXOOXXXXXX#o**ooooo.++X,>,X+++XOOOXX+XX>OX+++o*$&%<41*X+XX@*$%:o#XOXXXX#oo##o@XXX+++++X+#o*&*oo@o&$$&o=oo**o=##&qoo#55",
"$aa$$r11%$o@##++XXO>>OXXXX+o*&*oooo++XX>>,X+++XXXXOOXXXXOXXXXX@o%%%::%@XXOX+*%141%@XXXXXo*o#X+XOXXXXXXXXXX#ooo@#X@oo&o=#+##=====&o###X5",
"p$a$$8po@ ++@@+XXO>>>OX+XX+o***oo.++XX,>XX+++X,>@+XXXXXX###XX+o%<44:&o++XXX+o%444:o+XX+#o*o+XXO>XXXXXXXXOXXXXXXXOX#ooo##XX##=====55555#",
" p$$p@2XXXXX##+XXXOOOX+#XX+@ooo@.+++XXXX++o.+XXXoo@+XX#oooo@+o$:400<*#o*oo@+o%:::%o+X+ooo*oXXXX>X+++++XXOOOOOXXXOX#@o@=##########OO5##q",
"2@ppo@XXXXXXX++++XXXXX++XX+#oo@+++++++++oo*o.++o*$$oXX+o#ooooo&%:<:%*o*$$$o+#$:%:%$oooooooo+X++X#@ooo#++OOOOOOXXXXX##@#########5#555##@",
"X2@oo@@o@XXOXX++###++XXX++++@o@+++++++ooo***oo*f%<1&X>O+OXooo@oo*oo**&&&&&oX#%<:44<%*oooo*o++=o=oooooo@+XXOOOXXXXXXXX5##########=######",
"@@@   ++XXXXXX@oooo@+XXXXXXXXXX+XXXX++@o***ooo&%4:%o+X,>,+o%%*.X.+XXo*%:%f***f::1%%:&++=*o==**&-*o=#++##+XOXX>OXOXXO>OX#===#=###=======",
"XX++++##XXXXOX+@@@ +XXXXXXXXXXXXXXXX+@ooo**ooo$::%*o++XXXX+***oXX,>X.*%%f*.+.*:44r::%o=*=+++=&--=#+++#===++++XX+XX+XOOX++++#=o**t======",
"XXXX++#@XXXXXOXXXXXXXXXXXXXXXXXXXXXX#oo*ooooo*%%f*o.++XXXXX+**o+>>,+o*%%%*+XXo%:1r%%$oo*+XOX=---+XXX+=o*=+X++XX+#==#+XXXX++#=**&*t===#+",
"XXXXX+++XX++XXOXOOOXXXXXXXXXXXXXXXXX+#oo++##oo&%*o++XXXXX>>+o*.X>X+of%::%*+X,+o*%%%$*o**=XOX=---+XOO+=o*+XX+#++=****o+XX+++#=o**===#+XX",
"XXXXXXXXX+##+XXXOOXXXXX+XXXXXXOOXXXXXX++XXXX+oo*o.+X,>>>>>>+oo+,>X.*f%%%*o++X++.8$%&**&-*=++=&&*=+XX+oo=+++o***-----*o+X++++#=***==#+XX",
"++++XXXXX+##+XXXXXXXXXXXXXXXXXXXXXXXXXXXOO>XX#o@.++X,>>,>>X+.+X,>X+o*oo*++++++++o%%%$%%%-**==*==*#X+=*o=+X+o***--&&&*o#XXXXX+o*-**o=++X",
"++++++++XX++XXXXXXXXXXXXOXXXXXXXXXXXXXXXO>>OX##+++XXXXX+OX++XXXX>X+@#+++OOXXXXX+@$%%%::%&--&====*=+=*-*=+X+o*=o**ooooo#XXXXXX#**oo.u+XX",
"XX++#@ooXXXXXXXX+XXXXOOOOOOXXXXXOOXXX++#XO>X+##+++XX+#ooX++XO>X#OX##+XXXXXOO>OOOXo%%%%%&*---=++==#+o%:-oo==*&oo*=#++==+X+XXXX+#=+++X,>>",
"#+XXXX++#+XXXXXXOOOOOXXXXX+ @ooo#+++XXXXXXX+#@oo#++#o*$%#XOOXX+#XX+#@@@@XOOX+X>>X o&$%%:%%--&*=#-**--*****-<<&==XXX#oo#XXXXXX++X>>>,,,>",
"@+XXXXXX@#+XXXXXXXXXXX++oooooo*8oo@#++++XXX#@oo@+#@oooooo+XXXXXXXX+#oo@#XXX#o+XXX oooo*------*==-oo*&***%%:43%**=+++#==+X++XX++X,,XXX,>",
"@+XXXXXXo@#+XXXXXX+@oooo$8*ooo*8&*o@##@ooooooo++X#@oo@##@#XXXX##@#X#@o#XXXX@o@##@@++XX=o*&---&**&o=o*oo*%-%33%-%-*#++=o*#oo#+#+X++++XX>",
"++XXXXXX@@++XXXXX+@o*88$%$*ooooo&*o+++#o:::%&oXOXXX##XXXXXXX#oooo@XX##XOXXX@o@##o@+XXX#o=o**&&&*&=+====*=+=*---::-*ooo*&=*&***o+oo.++X,",
"XXXXXX+++++XXXXXXX+@oo*8$8o@ XXXoo+XXXX+<<:%*@XOOOOOOXXX#XX#oo&&o@XXXXO>XOX@o#XX XXOXX+=++==****-o+#=++=XOX+==*---&*ooo*=*---%%*&*o@+XO",
"++++++++XXXXXXXXOOXX+@oo$8oo@XXXo#XXXXXX**oo@+XXOOOOOOXX@###@ooo@@#XXOOO#XX@oXXXXOOOXX+XXX+=****-o#==+X+XXX++++=o***o###=*--%<<:%-&o#XX",
"ooo@#+XXOXX++++XXXXXX@o*%%%$*o+X@#+XXXXX++XXXXXXXXXXOOXX#5X5#@##X#@#XX#oq@@oo#XOOOXX++XOXX+=****-*=o=XXXXXXX+XX+=o*o=#===***-:3:<<-&o##",
"**oo@+XXOXX+#@##o@+X o8%:r1r%$o@o@@#+XXX@+XXXXXX#####XOOOOOXX###OX@@X#oe%&o$&@XXXX+oooX>X+#o**&&%*oo=XO>>>>XXXX+****==o*=**o*:::3<e&&oo",
"oo*o#XXXXXX+@oooo ++o%rg::%%%fffoo*o%o#O#+XOOXX+#oooo#+XXX@oo@XOOOXX+o%<%%%&o#XO++#o&*+OX+o**-:31%*#XXXX>O+#+XXX#oo#+=oo&ooo*&&&o&-&q##",
"oooo+XXXOXX+@oooXXX+ *%::%%88888%%#%+%+oo#XXOXXXoo*oo+XXOXX+#++XXXXXXo&%%%$&*o@#o*%%%o#+XX#@oo$%:%o+XOOO>X+#+XXX+##XX###&*oo**o#o&-&o##",
"ooo#XOOXXX#o**oo>>XXX *%:%8*oo**4*:O%X%ooo+XXXXX@ooo@###XXXX+#oo+XXOX+o&oooooooo$:41%oooXXXXX+o*&o@XOOXXXX##+XXXX##XOX#+&oo*-&oX=&-&=##",
"ooo+XXXX#o&%%%*o>XXX>Xo%:%f***88%1X%>%X**o@+XXXXXX#@@oo*XXXX#o&%o+XOX+oo#+XXX+@o*%%%%**&XXO>OX@oo#XXXXX+++#+XXOX#==XX+##ooo&<<&##=&&o==",
"ooo#XX++o&%::%*o+ +,>X*:::%888f%%o1O:O%o*oo+XXXXOX+@ooo*XXXX#o$%o#XXX#@@+XXOOX++@++@o&&*+XO>O+o*oo@+XXX+XX+XXXX+o&&=#o*o&&&%<<%o+=&&&&&",
"ooo#++oo*$%:%%ooo.+,>Xo%%%ffff%%o:#1X%#$ooo+XXXX+oo*oo@@XXX+@o**o+XX@oo#@+XXXX+@XO>O#o*o#XOO+o&%:%&o@+++XXXXX+o*&-%*o&%%<:%%%-*o#=&---:",
"#@@#+@o**&%::%&*o +X,X+ oo*88888*o%+%+%$oo@+XXXXo*%%%*o@XX+ooooo#+X#o*o@#++++#oo+XXOX+@o+XXXo$%:1<%%*ooo**oo+#o*&%%&&%<<<<%&o#=o=-:::::",
"+++++@o$*$%:<:%% +XXXX,>+ o****o@o#oXoo%o@#+XXXXo*%<:%*oX+o*&*o@+XXo&$*@XX++#ooooo@XOO+o+XX+o%<4::%%%%%%41%*#X+#o&-&&%<<&-&oXX#*-:33:::",
"XX#oo@++oo*:44:%X,,XX>>XXo8oo%8 #+XXX+#@o$&o+#X>oo$%:%*oXo**oo*$@+Xo$%*@++++@oo@#@ooo@+XXXX+o%::%:4<$*$:<<:$oXX+#ooooo&%&o#XOXX+#-3:--3",
"XXX+++XXo$:44<::fo..+>>>X*f**%8+++++X+#oo*o+X++O#*%%%*ooX@**oooo#++o&$o+XX+@o@+X++ooo#XX+++#o$%:%:1<%%<4%:%&oXXXoooo=o*&&o#XXX+#*-:---:",
"OOOXXXXXo%44:%%44%*o+>>,Xo8**8oX+#@+XX+@oo@XX++XXo%%*oooX#o*o#+#+++o**@XXX#oo+XOX+#@@+XX#++#o$:111<::<44:<<:$o@#*o###ooo&o#+X##o-yy--:-",
"XOOOOOXX@$14:%%1:8o X>>X,+o.o** oo*o+XX#ooo#+++XX@*&*oooX+oo@+XXX+@ooo+XX+@o#+XX+#@o@#+X@@ooo%<44:%$%%%$%:<<%&o@o#XX#oo=oo=##=oo-:i:::-",
"XXXXOXXX+@*%%%%%fo +X>,+X++ o8%%%%:%o@@ooo**o#XXXX+o&$*oX+#@+XXOX+ooo#XXoooo++#oooooo@#+***oo*%:%*@@o*o@o*&$&o+X#+XX=oo=ooo=ooo*wi03::i",
"XXXXXXXXXXXo%%%*fo  +,,XX+ o8:g4441:%%*ooo*%&#XX+XX#&%*@XX++XXXOX#oo@++#o**o++o&&&**oo@#%%%*@+#oXXXX@oo#ooo**o#XXXX#oooo=ooooooowi03i3h",
"X++++XXXXOX+*$*o*.  +,>XXX *%:rg:%$%%%$oooo&*#XX+++o**o@XXXXXXXXX@oo+X#ooo*oo@o$%%$*oo#+*%%o+OOX>OX+ooo@oooo**o+XX=oo=###=oooooo-:i:ih0",
"XX+#+XXOXXX+ooo@ XX++,,X>, 8%%%%*o#o%%*#o+#oo++@#@oooo@@+XXXXXXXX@oo+X@*+o&*o=o&%%%*o@+++oooX>>OOX+ooo@#+++#oo+XX#*&o####=ooooo=:---:03",
"XXXXXXXXX+@oo@XXOXXX>>>OX o8$oo +X+++ .o+ o888*ooo*o#X+@@#XXXXXXo.oo+XX++uo*t=u+*&&-&o##o#XOOOXX+=*--**o++=*=XXX>X*-&=+XX+ooo=##::%%:<<",
"XXXXXXXX@@oo@+XX>XXXO>OXX+oooo@ +++++ ..X+.o**oo$%%o+XX#o@+XXX+#****o++*****t====*&&&o##o#+XXX##+#o*--**==o*oXXXX#**o+XXX+**o+XO-%%%eee",
"XXXXXXXXooo@+XXO>OXXXXX X+@@@@ +XXXX++  X+ .oo**::%o+XX+o@+X+o*$:%%:%**%w**===t*=o&-&*=#######oo#++o-%%&&*--*+XX#=oo#XO>O+*%-oXOo&-%%%&",
"OOXXXXXXoo@XXOOO>X  XX+@+++++XXXXXXXXX++    o*8f%%$oXOX+o@++o*%1r::::%%:**=++=t&=o&%-&o==####=oo=+X#&::-%%%:&+XX+=oo=XO>X+&::&o#=o&%%&#",
"OOXXX @@o@+XOOOXX@oo XX+++XXXXXX,>>>>,XX++++ o*8**o+XOX#o@++@o$%:%%::%%:-*=uu=t**&&%-&*ooo######=+X#&::%:%::-#X+X+=**=XO+=&%-&*o#o&&&=X",
"XXX+@ooooo XXXXX o8*@XXX++XXXXOO>>>>>>>,XX,,XX  +++XOOX@oo@+++#@8oo*%**w:%w*ttt*&&&&&&**oo#+XXXX=++=*%%-%%%:-=++XX=*-&=+o*&*o=#+##ooo#X",
"XX @o*$$$8o@ XXX@o$$o +++++XXXO>X,>>>>,,>>>>,,XXOXXXOOX#*oooo@@#o+Xooooo----&***-&&ooooooo#XXXXX==oo*&&-&*-%-=+#X+#*%%&oo&&&o#+X++++#++",
"X+@o*$%%%%$o@+XO@o$$o@ @+   XXO>XXX,,XXXXXXXXXXXOX+XXXX#oo*&&&&&@XX+oo==+#=*-----&o###=oo=+XOXX#=o********&%&=+==##o-%%&=*&-&o##XXXX+#=",
"X+o%r%%1:$$%$+OO@oo**oo@XXXXX+XXXX+  +X,X,,,XX>>>OXXXOXXXX+++@*$  XXXXXX+#==&-:3<&##==o&*oXOXo=X**o===**o*--&*oo&&q###&%&&&%&o##XXXXX#*",
"XXo%:%%1%$$%$@XOX+@oo@ + XXXX@oo oo*oo +XX>>,X>>>XXXXOXXXXXXX+oo+XXXX++#++==&-:3<&ooooo&%&#XX=o#***oo**&-%%%---%-&q#X5#oooq&&o##XXXXX#*",
"XXo$%$%r$$$%$@XXXX+@@@@@o+XOX@*$*88f88*o+X>>>,,>OXXXXXXXXXXXXX+@XXXX@oo&oo=o&&--%-&&*o*%%&#O>X##oo***&&-::::%%<4%%&#XOXX##o&&#XXXXXX+u*",
"OO+o*o8%$%%%8@XXOX+@o*8$o@XX oo****88888 X>>>XXXXXXXXXXX>OOOOOX+XXXX@o*&-&&*o===-&--&oo%--oX>O+##=o*---*::::::34<e&o#XXOXX#&&#5+XX+++=*",
">>X @ o8$%%$o+XOOXX@o$%%*ooo**oo   .oo*8 +X,XXXXXXXXXXXX>>OOOXX#XXXXX#=o&&*====#&*&&*#o-%%&=+#==++=*--&*&-%:%%:<<<e$q@5555#&&@##++++o**",
"O>OXXX+o8%%o+XXXOOX o*$%$$%%%%*oXXX++.o*o XX++++XXXX+#+X>OXXXX+#XXXXXXX+=###====*oo*o=o&&&o##=o#+++o--*o=o****--<<<ee&q5##@&&@###+uo***",
"XOOXXOXoo$$@XX  XX+ @ooo8$%%:%8o. +++ o*o.   . +XXXX#o#+X+##+XX+XOOOOOXXXXX5##=o&o#oooo&o=XOX#=#=##o-%&o+++++=*&<<<<e$@5q##qq##oo=o*--*",
"+XXXXOX@ ooXOXoooo@@@@@@ooo$%$*o8oo@ @oooo.ooo +XXXX@oo+oooo#XXXOOOOOOXXXXXX5##=%o#=ooo&&=X>Xo*o*==o-%-*XXXXX+o&<eeee&#Oq##q@##@*o*&%%w",
"XXXXXXOOoooXXooo*oo XXXXooooo*$%<$oo#X+oX@1&#oO+XOO#*oooo%:&+XXXXXXXXXXXOOOX#==#%%&***$%:*X>X$%o&&&&oo&-o#XOX###o%33<&#5##o#OO7o%o=o:3:",
"XXXXXXXOX@ XXooo8oo XXXX+XXX+@oo&o@@#X#o@o<o@oOX@++o*o#@+*%oXXXXOOOXXXXXXXX#@ooo%%$$%%%:%*+X+&$o-%-&oo&%=#X+#oo=&&--&====o&q@7@o-&*-:<&",
"OOXXXXXXXXXXXooo8oo XXXXXXXXXXX+@#X###o$oo%@@&XX@@o**@#o@$%*+XXOOOOOXXXXXOOX#@@#@##@oo&%**o#o**o-&&o##o&===o&&*o&*===tt*t&:%%$p$%----&o",
">OXXXXXXXXXX @oo$*o@XXXXXXXXXXXX#####@o%o#oX#$XXX+o&*@@*%14%o+XOOOOXXX##XXOXX###OOOOXX+##ooooooo&o#XXX+#=o&-%%&&*#XX=t&&*-:<%%%%<<y-=#X",
"OOX+  ++OOX @oo8$*o@XXXXXXXXXXXX#@@##@o&#O#OX$##XXo&*##o:44<$o@XXXX##@ooo@#@oooo+XXXXXXXXX@oo@oo*o#XXXX+o*-%%%-&o#X#=&&t==ooop$%<:-=+XX",
"XX@ooo@@>>O+oo$%$8o@XXXXXXXXXXXOX@@XXX##XOXOX&X#++o&*#++&:4:%%*o##@@oooooo##@ooo@+XXXXXXOOX#@@o$&*o#===#o&--&&&&=#==&&&*#+XXX2@o%-&=+XX",
" @o*8oooXOOX  o$$8o@XXXXOOXXXXXXX@@XOX#XXO@OXoXX#+@&%o#+o%<:::%oooooooooo@XXX#@@++XOOOOOX>>Xoo*:%&&&&&&o&&&*oo*&o*&-&*&&==XXOOXX*ooooo#",
"@o*$$8oooXXXXOX@$8o@XXXXOXX+++XXXooXX@@#XXoXXoOXXX+&%%*o$:41<:%ooooooooo&o###@oo#+XXXXXXX>>Xoo%4-&&-%%&o&&&o##o&*-:-&*&--*=+XXOO#=o&%&o",
"8%%$$%8@@ XOOOOX@@OOo@OOXXXXXXXXX@o@##o&#&@X##XX#+o$%*oo&:%%4:*%@&o#o@#&&$&@#@o#@o#XOXXOX##o&o*4<-&-&o###-&##X+--:*3*:*-t-&#OOO>#=*--&o"};
