/* XPM */
static char * icon_feeds_xpm[] = {
"27 29 20 1",
" 	c #D75CF7DEF7DE",
".	c #D75CF3CEF7DE",
"X	c #D75CFBEEFFFF",
"o	c #CF3CF3CEF7DE",
"O	c #D75CFFFFFFFF",
"+	c #D75CF7DEFFFF",
"@	c #CF3CF7DEF7DE",
"#	c #CF3CF7DEFFFF",
"$	c #DF7DFBEEF7DE",
"%	c #DF7DFFFFFFFF",
"&	c #DF7DFBEEFFFF",
"*	c #000000000000",
"=	c #CF3CEFBEF7DE",
"-	c #C71BEFBEEFBE",
";	c #D75CFBEEF7DE",
":	c #C71BEFBEF7DE",
">	c #CF3CFBEEFFFF",
",	c #C71BEBADEFBE",
"<	c #C71BF3CEEFBE",
"1	c #C71BF3CEF7DE",
"  ... XXo XOXXXXo++@o#@oXOO",
"$$   +XXXXXX++XOXXX++X+o+XO",
"%%&&&&X&XX&#oo#&&&OXXXX+#XX",
"%%%%   +XXXXXX++XOXXX++++XX",
"%%%%&&&*X*%*X#oo#***OXXXXXX",
"%%&&%%%*%*%*+o==o***X###XXX",
"&&&&%%%*X*%*X#ooo***o==oX++",
"%&X&&&**X*%**XXX@***=--=#o@",
"&&%X&X**%*%**XOXX***o===+o=",
"&&&&X;**%*%**XXXX***Xoooo=:",
" &&%%%*******+#@#***#+++o:-",
"  X%&%*******+oo****XXXX=:-",
"  ;%&%%*****X@oo****XXXX===",
".  %X&%%***&X@oo****+++@ooo",
".  %;&%%***%X#oo****#@@o@++",
"o. % &%%***%XX@o****+ooo+XX",
" oo+ &%%***&OX+@@@**@oo=@>X",
"@ooX X%*****%OX+##**o--,@XX",
"oooXoo+*****XX++XX**X<<-XXX",
"oooXo@X*****OXX+XX**>11<XOX",
"ooo+o#X*****OX++XX**Xooo%OX",
"@oo#o#X*****X+@@+X**+@@@%%X",
"X+@@oo+X***@o==o@X**++++%%&",
"%X+#oo#+#@oo=,,:o+X++XXX%&X",
"XXXXX@o@##@#o=,,-o+X++%%&XX",
"OXX+++++#oo==o#X+  X&%&XXXX",
"OXX#@@@#ooooo+X%+++X&&XX++X",
"XX+oo@+X@@o@+XO%XXXXXXXX. +",
"X+@oo+XX++++XXOOXXXXXXXXo@+"};
