/* XPM */
static char * icon_play_xpm[] = {
"39 34 2 1",
" 	c #FFFFFFFFFFFF",
".	c #000000000000",
"                                       ",
"                                       ",
"                                       ",
"                                       ",
"                                       ",
"                                       ",
"                                       ",
"               ...                     ",
"              .   .                    ",
"             ..   ..                   ",
"            .  . .  .      ..          ",
"            .  . .  .    ....          ",
"            .  . .  .  .......         ",
"             ..   ..  ........         ",
"              .   . .........          ",
"               ... ........            ",
"                 ........              ",
"               .......                 ",
"              ......                   ",
"            .......                    ",
"           .....                       ",
"        ......                         ",
"        ....                           ",
"         ..                            ",
"          .                            ",
"                                       ",
"                                       ",
"                                       ",
"                                       ",
"                                       ",
"                                       ",
"                                       ",
"                                       ",
"                                       "};
