/* XPM */
static char * icon_attent_xpm[] = {
"43 36 2 1",
" 	c #FFFFFFFFFFFF",
".	c #000000000000",
"                                           ",
"                                           ",
"                                           ",
"                                           ",
"                                           ",
"                                           ",
"                                           ",
"          .......                          ",
"        ..       ..                        ",
"       .           .                       ",
"      .             .                      ",
"     .               .                     ",
"     .    ..    ..   . .......             ",
"    .     ..    ..   ..       ..           ",
"    .                           .          ",
"    .                            .         ",
"    .   .            ..           .        ",
"    .   .        .    ..       .  .        ",
"    .    .       .    ..........   .       ",
"     .    .    ..      ... ....    .       ",
"     .     ....        ..   ..     .       ",
"      .                 .   .      .       ",
"       .                           .       ",
"        ..       ..                .       ",
"          ....... .               .        ",
"                  .               .        ",
"                   .             .         ",
"                    .           .          ",
"                     ..       ..           ",
"                       .......             ",
"                                           ",
"                                           ",
"                                           ",
"                                           ",
"                                           ",
"                                           "};
