/* XPM */
static char * icon_dbgnext_xpm[] = {
"30 26 17 1",
" 	c #D75CFFFFFFFF",
".	c #D75CFBEEFFFF",
"X	c #CF3CF7DEFFFF",
"o	c #CF3CF7DEF7DE",
"O	c #CF3CF3CEF7DE",
"+	c #C71BEFBEF7DE",
"@	c #C71BEFBEEFBE",
"#	c #C71BEBADEFBE",
"$	c #BEFBE79DEFBE",
"%	c #000000000000",
"&	c #BEFBE79DE79D",
"*	c #DF7DFFFFFFFF",
"=	c #D75CF7DEFFFF",
"-	c #CF3CEFBEEFBE",
";	c #CF3CEFBEF7DE",
":	c #D75CF7DEF7DE",
">	c #C71BE79DEFBE",
"  .. .  ..XoO+@##@OoXXXo XoXO#",
" ... .  XooOO+@#@Oo.   ..oOoO@",
"XOOOOOOXooOOOO++Oo..    .oOOOO",
"O###@#@+OOoOOOoo......Xo.oO+OO",
"O@$####+OO%%%%o..%...XoO.XO++O",
"O#$&#&#@@+%%%%o..%%......XO@+O",
"+#&&$&$#+O%%%%. .%%.....oO+#+o",
"O+#####@OX%%%% * %%%%XXoOO@#+X",
"O+#@O@OoXo%%%%. .%%%%%Xo+++++@",
"OO@+O+OXXo%%%%.. %%%%%oOOOOOO@",
"O++OoOo..o%%%%o. %%%%%%XXXXXO+",
"@@+OoOo..o%%%%OoX%%%%%% X...o+",
"##@OoOoX.X%%%%%%%%%%%%%%XXXXO+",
"##+OXOXX .%%%%%%%%%%%%%%OOoOOO",
"++O..... .%%%%o. %%%%%%+OOOOOO",
"OOX      .%%%%X..%%%%%O++++OOX",
"oo=.... ..%%%%O=.%%%%=O-#;Oo::",
"=.......Xo%%%%o..%%%%.oO#-Oo=.",
"....=.=o;;%%%%=  %%% .=o#;O=..",
"...=O=OO@@%%%%.*.%%% ..o;O:...",
"..=oOoOO;+%%%%.*.%% ..=:o.....",
".=oO;O;;;;%%%%= =%  ..::..  ..",
"..XO@O@#;+OooOX.:.  ..=.. ** .",
"..=O#O#>##;OOOo.:.**......**  ",
"=O;#####;;@##;O= ==..oo...  **",
"O;#>>>>#@@;;OOX=*..  =:...  **"};
