/* XPM */
static char * icon_base_xpm[] = {
"30 26 16 1",
" 	c #C71BEBADEFBE",
".	c #CF3CF3CEF7DE",
"X	c #CF3CF7DEFFFF",
"o	c #CF3CF7DEF7DE",
"O	c #D75CFFFFFFFF",
"+	c #C71BEFBEEFBE",
"@	c #C71BEFBEF7DE",
"#	c #D75CFBEEFFFF",
"$	c #BEFBE79DEFBE",
"%	c #BEFBE79DE79D",
"&	c #DF7DFFFFFFFF",
"*	c #D75CF7DEF7DE",
"=	c #CF3CEFBEF7DE",
"-	c #CF3CEFBEEFBE",
";	c #D75CF7DEFFFF",
":	c #C71BE79DEFBE",
"  .XoXOoXXXo.+  +@.oX##OO##OO#",
"++.o.o##OOO#o.+ +@..ooXOO###OO",
".....o#OOOO##o.@@....ooX....X#",
"o..@.o#oX######oo...o..@+   .o",
"o.@@.X#.oX######o......@  $+.X",
"..@+.X##########o.@..@++ %$ .o",
".o@ @.o########O#...o.@ $%% @.",
"oX@ +..oXX###OO&OXoX#X.+   @.X",
" +@@@@@oX######O####ooXo.+ @..",
" +......o####OO##X#XooXX.@+...",
" @.XXXXX######O#ooXXoo##o.@@..",
" @o###XOOO#XXXXo..oXoo##o.@++@",
" @.XXXX##O##XXXo..oXoX#Xo.+  +",
"@...o...X#####OX..X#X#OXX.@  +",
"o......@.#OOOOO#oo####O###.@@.",
"#X..@@@@.#OOO###XX####OOOOX..X",
"#**o.= -.;##*;#;..;####O##;ooo",
"##;o.- .o#######o.;#XoX#####;X",
"###;.= o;#OO##OO;o;X.==o;####;",
"####*.=o##OOOO#&#X;o=++..;####",
"######o*;##OO##&#X;X.@=..o;###",
"###OO##**##OO#;O;o;X.====.o;##",
"##O&&O##;##OO#*#X.oo.@= +.X###",
"OOO&&######&&#*#o...=  : .;##;",
"&&&OO###oo##;;O;.=  +==   =.;;",
"O&&OO###*;OO##&;X..==++ :: =.;"};
