/* XPM */
static char * icon_light_xpm[] = {
"30 26 17 1",
" 	c #C71BEFBEEFBE",
".	c #CF3CF3CEF7DE",
"X	c #CF3CF7DEF7DE",
"o	c #D75CFBEEFFFF",
"O	c #D75CFFFFFFFF",
"+	c #C71BEBADEFBE",
"@	c #C71BEFBEF7DE",
"#	c #CF3CF7DEFFFF",
"$	c #000000000000",
"%	c #BEFBE79DEFBE",
"&	c #BEFBE79DE79D",
"*	c #D75CF7DEF7DE",
"=	c #CF3CEFBEF7DE",
"-	c #CF3CEFBEEFBE",
";	c #D75CF7DEFFFF",
":	c #DF7DFFFFFFFF",
">	c #C71BE79DEFBE",
"  .X.XooOOOoX. + @..XX#OOoooOO",
"....XoOOOOooX.@@....XX#.....#o",
"X.@.XoX#oooooo$X...X..@ ++++.X",
"X@@.#o.$#ooooo$X.....$@++%  .#",
".@ .#ooo$ooooo$X.@..$  +&%++.X",
".@+@.Xooo$ooooOo...$.@+%&&++@.",
"X@+ ..X##oooO$$$#X#o#. +++@@.#",
"+@@@@@X#ooo$$$$$$$oXX#X. +@@..",
"+......Xoo$$$$$$$$$XX##.@ ....",
"+.#####ooo$$oOoXX$$XXooX.@@@..",
"+Xooo#OOO$####X..X#$XooX.@   @",
"+.####ooO$o$##X..$#$#o#X. +++ ",
"@..X.$$$o$o$oO#..$o$o$$$.@+++ ",
"X.....@.o$OO$OoX$oo$oOooo.@@@.",
"o..@@@@.o$OO$oo#$oo$oOOOO#...#",
"o*X.=+-.;o$*;$;$.;$oooOoo;XXXX",
"o;X.-+.Xoo$ooo$X.;$#X#oooooo;#",
"oo;.=+X;$OO$oOO;X$#.==X;ooooo;",
"ooo*.=X$oOO$Oo:o#$X=$ ..;ooooo",
"oooooX$;ooOOoo:o#;#.@$..X;oooo",
"ooOOoo**ooOO$$$$$;#.==$=.X;;oo",
"oO::Ooo;ooOOo*o#.XX.@=+ .#oooo",
"OO::oooooo::$$$$$..=++>+.;ooo;",
"::OOoooXXoo;;O;.=++ ==+++=..;;",
"O::OOooo*;OOoo:;#..==  +>>+=.;",
"O::OOooo*;OOoo:;#..==  +>>+=.;"};
