/* XPM */
static char * icon_status_xpm[] = {
"30 26 17 1",
" 	c #C71BEBADEFBE",
".	c #CF3CF3CEF7DE",
"X	c #CF3CF7DEFFFF",
"o	c #CF3CF7DEF7DE",
"O	c #D75CFFFFFFFF",
"+	c #C71BEFBEEFBE",
"@	c #C71BEFBEF7DE",
"#	c #D75CFBEEFFFF",
"$	c #000000000000",
"%	c #BEFBE79DEFBE",
"&	c #BEFBE79DE79D",
"*	c #DF7DFFFFFFFF",
"=	c #D75CF7DEF7DE",
"-	c #CF3CEFBEF7DE",
";	c #CF3CEFBEEFBE",
":	c #D75CF7DEFFFF",
">	c #C71BE79DEFBE",
"  .XoXOoXXXo.+  +@.oX##OO##OO#",
"++.o.o##OOO#o.+ +@..ooXOO###OO",
".....o#OOOO##o.@@....ooX....X#",
"o..@.o#oX###$$$$$$..o..@+   .o",
"o.@@.X#.oX$$####o.$$...@  %+.X",
"..@+.X###$######o.@.$@++ &% .o",
".o@ @.o#$####$#O$...o$@ %&& @.",
"oX@ +..$XX###$O*$XoX#X$+   @.X",
" +@@@@$oX####$#O$###ooX$.+ @..",
" +...$..o#$##OO##X#$ooXX$@+...",
" @.XX$XX###$##O#oo$Xoo##$.@@..",
" @o#$#XO$O#X$XXo.$oXoo##o$@++@",
" @.X$XX##$##XXXo..oX$X#Xo$+  +",
"@...$...X#$###OX..X$X#OXX$@  +",
"o....$.@.#OOOO$#oo####O#$#.@@.",
"#X..@$@@.#OOO#$#XX####OO$OX..X",
"#==o.-$;.:##=:$:..:####$##:ooo",
"##:o.;$.o#####$#o.:#XoX$####:X",
"###:.- $:#OO##$O:o:X.-$o:####:",
"####=.-$##OOO$$$#X:o-+$..:####",
"######o=$##OO$$$#X:X.$-..o:###",
"###OO##=$##OO#:O:o:X.$---.o:##",
"##O**O##:$$$$$$$$$$$$@- +.X###",
"OOO**######**#=#o...-  > .:##:",
"***OO###oo##::O:.-  +--   -.::",
"O**OO###=:OO##*:X..--++ >> -.:"};
