/* XPM */
static char * icon_cancel_xpm[] = {
"30 26 17 1",
" 	c #C71BEBADEFBE",
".	c #CF3CF3CEF7DE",
"X	c #CF3CF7DEFFFF",
"o	c #CF3CF7DEF7DE",
"O	c #D75CFFFFFFFF",
"+	c #C71BEFBEEFBE",
"@	c #C71BEFBEF7DE",
"#	c #D75CFBEEFFFF",
"$	c #BEFBE79DEFBE",
"%	c #000000000000",
"&	c #BEFBE79DE79D",
"*	c #DF7DFFFFFFFF",
"=	c #D75CF7DEF7DE",
"-	c #CF3CEFBEF7DE",
";	c #CF3CEFBEEFBE",
":	c #D75CF7DEFFFF",
">	c #C71BE79DEFBE",
"  .XoXOoXXXo.+  +@.oX##OO##OO#",
"++.o.o##OOO#o.+ +@..ooXOO###OO",
".....o#OOOO##o.@@....ooX....X#",
"o..@.o#oX######oo...o..@+   .o",
"o.@@.X#.oX######o......@  $+.X",
"..@+.X%%%#######o.%%%@++ &$ .o",
".o@ @.%%%%#####O#%%%%.@ $&& @.",
"oX@ +.%%%%%%#OO*%%%%%..+   @.X",
" +@@@@@oX%%%%##%%%%..oXo.+ @..",
" +......o#%%%%%%%%...oXX.@+...",
" @.XXXXX###%%%%%%oXXoo##o.@@..",
" @o###XOOO#X%%%%..oXoo##o.@++@",
" @.XXXX##O#%%%%%%.oXoX#Xo.+  +",
"@...o...X##%%%%%%.X#X#OXX.@  +",
"o......@.#%%%OO%%%####O###.@@.",
"#X..@@@@.%%%O###%%####OOOOX..X",
"#==o.- ;.%%#=:#:%%%####O##:ooo",
"##:o.; .%%%#####o%%%XoX#####:X",
"###:.- o%%%O##OO:%%%.--o:####:",
"####=.-o%%OOOO#*#X%%-++..:####",
"######o%%%#OO##*#X%X.@-..o:###",
"###OO##=%%#OO#:O:o:X.----.o:##",
"##O**O##:##OO#=#X.oo.@- +.X###",
"OOO**######**#=#o...-  > .:##:",
"***OO###oo##::O:.-  +--   -.::",
"O**OO###=:OO##*:X..--++ >> -.:"};
