/* XPM */
static char * icon_dbgright_xpm[] = {
"30 26 16 1",
" 	c #D75CFFFFFFFF",
".	c #D75CFBEEFFFF",
"X	c #CF3CF7DEFFFF",
"o	c #CF3CF7DEF7DE",
"O	c #C71BEBADEFBE",
"+	c #C71BEFBEEFBE",
"@	c #C71BEFBEF7DE",
"#	c #CF3CF3CEF7DE",
"$	c #BEFBE79DE79D",
"%	c #BEFBE79DEFBE",
"&	c #000000000000",
"*	c #D75CF7DEFFFF",
"=	c #D75CF7DEF7DE",
"-	c #CF3CEFBEF7DE",
";	c #C71BE79DEFBE",
":	c #DF7DFFFFFFFF",
"  .. .  ..XoO+O+@##oXXXo XoX#O",
" ... .  Xoo#OOOO@##.   ..o#o#+",
"X######Xoo##$O$O++@.    .o####",
"#OOO+O+O+O+@$%$%O@#..O+O+@####",
"#+%OOOOOOOO@OOOOO+O+@OOOO@##@#",
"#O%$O$O$O$O++#+#OOOO@$O$O++@@#",
"@O$$%$%$%$%O@#@#$O$O+$%$%O@#@o",
"#@OOOOOOOOO+#o#o$%$%OOOOO+#X@X",
"#@O+#+#+#+#o#o#o&OOO++#+#oXo@+",
"##+@#@#@#@#X#o#o&&+#o@#@#XXo#+",
"#@@#o#o#o&&.#X#X&&&#X#o#o..o#@",
"++@#o#o#o&&&&&&&&&&&.#o#o..oo@",
"OO+#o#o#o&&&&&&&&&&&&#o#oX.X#@",
"OO@#X#X#X&&&&&&&&&&&X#X#XX .##",
"@@#......&&.....&&&XX..... .##",
"##X         .*.*&&...      .#X",
"oo*........ *#*#&    .... ..==",
"*...........o#o#.... .....Xo*.",
"....*.*.*.*o#-#-......*.*o--..",
"...*#*#*#*###+#+.*.*o*#*##++..",
"..*o#o#o#o###O#O*#*##o#o##-@..",
".*o#-#-#-#----* o#o###-#----..",
"..X#+#+#+#+O-@X.#-#--#+#+O-@ .",
"..*#O#O#O#O;OOo.#+#+O#O#O;OO  ",
"*#-OOOOO--+OO-#*#O#O;OO...  ::",
"#-O;;;;O++--##X*:..  *=...  ::"};
