/* XPM */
static char * icon_feed_xpm[] = {
"42 34 2 1",
" 	c #FFFFFFFFFFFF",
".	c #000000000000",
"                                          ",
"                                          ",
"                                          ",
"                                          ",
"                                          ",
"                                          ",
"            . . .     ...                 ",
"            . . .     ...                 ",
"            . . .     ...                 ",
"           .. . ..    ...                 ",
"           .. . ..    ...                 ",
"           .. . ..    ...                 ",
"           .......    ...                 ",
"           .......   ....                 ",
"            .....    ....                 ",
"             ...     ....                 ",
"             ...     ....                 ",
"             ...     ....                 ",
"             ...       ..                 ",
"            .....      ..                 ",
"            .....      ..                 ",
"            .....      ..                 ",
"            .....      ..                 ",
"            .....      ..                 ",
"             ...       ..                 ",
"                                          ",
"                                          ",
"                                          ",
"                                          ",
"                                          ",
"                                          ",
"                                          ",
"                                          ",
"                                          "};
