/* XPM */
static char * icon_inject_xpm[] = {
"30 26 17 1",
" 	c #C71BEBADEFBE",
".	c #CF3CF3CEF7DE",
"X	c #CF3CF7DEFFFF",
"o	c #CF3CF7DEF7DE",
"O	c #D75CFFFFFFFF",
"+	c #C71BEFBEEFBE",
"@	c #C71BEFBEF7DE",
"#	c #D75CFBEEFFFF",
"$	c #000000000000",
"%	c #BEFBE79DEFBE",
"&	c #BEFBE79DE79D",
"*	c #D75CF7DEF7DE",
"=	c #CF3CEFBEF7DE",
"-	c #D75CF7DEFFFF",
";	c #CF3CEFBEEFBE",
":	c #DF7DFFFFFFFF",
">	c #C71BE79DEFBE",
"  .XoXOoXXXo.+  +@.oX##OO##OO#",
"++.o.o##OOO#o.+ +@..ooXOO###OO",
".....o#OOOO##o.@@....ooX....X#",
"o..@.o#oX######oo$..o..@+   .o",
"o.@@.X#.oX######o$$....@  %+.X",
"..@+.X##########o.$$.@++ &% .o",
".o@ @.o########O#..$$.@ %&& @.",
"oX@ +..oXX$##OO$OXoX$$.+   @.X",
" +@@@@@oX##$###O$###o$$o.+ @..",
" +......o###$OO##$#Xoo$$.@+...",
" @.XXXXX###$#$O#oo$Xoo#$$.@@..",
" @o###XOOO$XXX$o..o$oo##$.@++@",
" @.XXXX##$##XXX$..oXoX#Xo.+  +",
"@...o...$#####OX$.X#X#OXX.@  +",
"o......$$$OOOOO#o$####O###.@@.",
"#X..@@$$$$$OO###XX$###OOOOX..X",
"#**o.= $$$$$*-#-.$-$###O##-ooo",
"##-o.; .$$$$$###$.-#$oX#####-X",
"###-.= o-$$$$$O$-o-X.==o-####-",
"####*.=o$#$$$$$:#X-o=++..-####",
"######o$-##$$$#:#X-X.@=..o-###",
"###OO#$**##O$#-O-o-X.====.o-##",
"##O::O##-##OO#*#X.oo.@= +.X###",
"OOO::######::#*#o...=  > .-##-",
":::OO###oo##--O-.=  +==   =.--",
"O::OO###*-OO##:-X..==++ >> =.-"};
