/* XPM */
static char * icon_turnleft_xpm[] = {
"30 26 17 1",
" 	c #C71BEBADEFBE",
".	c #CF3CF3CEF7DE",
"X	c #CF3CF7DEFFFF",
"o	c #CF3CF7DEF7DE",
"O	c #D75CFFFFFFFF",
"+	c #C71BEFBEEFBE",
"@	c #C71BEFBEF7DE",
"#	c #D75CFBEEFFFF",
"$	c #BEFBE79DEFBE",
"%	c #BEFBE79DE79D",
"&	c #000000000000",
"*	c #DF7DFFFFFFFF",
"=	c #D75CF7DEF7DE",
"-	c #D75CF7DEFFFF",
";	c #CF3CEFBEF7DE",
":	c #CF3CEFBEEFBE",
">	c #C71BE79DEFBE",
"  .XoXOoXXXo.+  +@.oX##OO##OO#",
"++.o.o##OOO#o.+ +@..ooXOO###OO",
".....o#OOOO##o.@@....ooX....X#",
"o.....o#OOOO##o.@@....ooX   .o",
"o.@.@.o#oX######oo...o..@ $+.X",
"..@@@@.o#oX######oo...o..%$ .o",
".o@@+@.X#.oX######o......%% @.",
"oX@@ +.X##########o.@..@+  @.X",
" +@@  @.o#####&##O#...o.@+ @..",
" +.@@ +..oXX#&&OO*OXoX#X.@+...",
" @...@@@@oX#&&&##O####ooX.@@..",
" @o.X.....o&&&&OO##X#XooX.@++@",
" @.o#XXXXX&&&&&&&&&&&Xoo#.+  +",
"@...X###X&&&&&&&&&&&&Xoo#.@  +",
"o....XXXX#&&&&&&&&&&&XoX##.@@.",
"#X....o...X&&&&#OX..X#X#OOX..X",
"#==......@.#&&&OO#oo####O#-ooo",
"##-=o.@@@@.#O&&###XX####O###-X",
"###-oo.; :.-##&-#-..-########-",
"####-o.: .o#######o.-#XoX-####",
"#####-.; o-#OO##OO-o-X.;;o-###",
"######=.;o##OOOO#*#X-o;++.o-##",
"##O#OO##==##OO#-O-o-X.;;;.X###",
"OOOO**O##-##OO#=#X.oo.@; .-##-",
"***OO###oo##--O-.;  +;;   ;.--",
"O**OO###=-OO##*-X..;;++ >> ;.-"};
