/* XPM */
static char * icon_meal_xpm[] = {
"30 26 17 1",
" 	c #C71BEBADEFBE",
".	c #CF3CF3CEF7DE",
"X	c #CF3CF7DEFFFF",
"o	c #CF3CF7DEF7DE",
"O	c #D75CFFFFFFFF",
"+	c #C71BEFBEEFBE",
"@	c #C71BEFBEF7DE",
"#	c #D75CFBEEFFFF",
"$	c #BEFBE79DEFBE",
"%	c #BEFBE79DE79D",
"&	c #000000000000",
"*	c #D75CF7DEF7DE",
"=	c #CF3CEFBEF7DE",
"-	c #CF3CEFBEEFBE",
";	c #D75CF7DEFFFF",
":	c #DF7DFFFFFFFF",
">	c #C71BE79DEFBE",
"  .XoXOoXXXo.+  +@.oX##OO##OO#",
"++.o.o##OOO#o.+ +@..ooXOO###OO",
".....o#OOOO##o.@@....ooX....X#",
"o..@.o#oX######oo...o..@+   .o",
"o.@@.X#.oX######o......@  $+.X",
"..@+.X##########o.@..@++ %$ .o",
".o@ @.o##&&&&&&&&&&&&.@ $%% @.",
"oX@ +..o&&&&&&&&&&&&&&.+   @.X",
" +@@@@@&&&#####O&&&#o&&o.+ @..",
" +.....&&####OO##&&Xo&&X.@+...",
" @.XXXX&&#####O#o&&Xo&&#o.@@..",
" @o###X&&&#XXXXo&&&X&&&#o.@++@",
" @.XXXX#&&&#XXX&&&o&&&#Xo.+  +",
"@...o...X&&###O&&.X&&#OXX.@  +",
"o......@.&&OOOO&&o#&&#O###.@@.",
"#X..@@@@.&&OO##&&X#&&#OOOOX..X",
"#**o.= -.&&#*;#&&.;&&##O##;ooo",
"##;o.- .o&&####&&.;&&oX#####;X",
"###;.= o;&&&&&&&&&&&&==o;####;",
"####*.=o#&&&&&&&&&&&&++..;####",
"######o*;##OO##:#X;X.@=..o;###",
"###OO##**##OO#;O;o;X.====.o;##",
"##O::O##;##OO#*#X.oo.@= +.X###",
"OOO::######::#*#o...=  > .;##;",
":::OO###oo##;;O;.=  +==   =.;;",
"O::OO###*;OO##:;X..==++ >> =.;"};
